<svg xmlns="http://www.w3.org/2000/svg" viewBox="0 0 600 442"><rect class="background" height="2000%" width="2000%" y="-1000%" x="-1000%" fill="#1b1b1b"/><rect class="watermarklayer" height="100%" width="100%" fill="none"/><g class="content"><svg height="108" width="158" xmlns="http://www.w3.org/2000/svg" x="83" y="153" preserveAspectRatio="none" transform="translate(-39.85 14)" class="icon"><svg xmlns="http://www.w3.org/2000/svg" viewBox="129 167 158 108"><defs><linearGradient x1="-24%" y1="19%" x2="138%" y2="98%" id="a"><stop stop-color="#5433FF" offset="0%"/><stop stop-color="#20BDFF" offset="50%"/><stop stop-color="#A5FECB" offset="100%"/></linearGradient></defs><path d="M179 201c6.627 0 12 5.373 12 12a12 12 0 0 1-.506 3.459l40.741 39.806h33.832a11.988 11.988 0 0 1 9.628-5.261L275 251c6.627 0 12 5.373 12 12s-5.373 12-12 12-12-5.373-12-12c0-.247.007-.491.022-.734h-34.23l-41.523-40.57A11.96 11.96 0 0 1 179 225c-2.965 0-5.68-1.076-7.774-2.858l-19.236 19.031c.65 1.477 1.01 3.11 1.01 4.827 0 6.627-5.373 12-12 12s-12-5.373-12-12 5.373-12 12-12c2.723 0 5.234.907 7.248 2.435l19.49-19.282A11.976 11.976 0 0 1 167 213c0-6.627 5.373-12 12-12Zm96 56a6 6 0 1 0 0 12 6 6 0 0 0 0-12Zm-96-23c6.627 0 12 5.373 12 12s-5.373 12-12 12-12-5.373-12-12 5.373-12 12-12Zm0 6a6 6 0 1 0 0 12 6 6 0 0 0 0-12Zm-38 0a6 6 0 1 0 0 12 6 6 0 0 0 0-12Zm38-73c6.627 0 12 5.373 12 12s-5.373 12-12 12c-2.711 0-5.212-.9-7.222-2.415l-19.791 19.581A11.959 11.959 0 0 1 153 213c0 6.627-5.373 12-12 12s-12-5.373-12-12 5.373-12 12-12c2.72 0 5.229.905 7.242 2.43l19.783-19.57A11.958 11.958 0 0 1 167 179c0-6.627 5.373-12 12-12Zm0 40a6 6 0 1 0 0 12 6 6 0 0 0 0-12Zm-38 0a6 6 0 1 0 0 12 6 6 0 0 0 0-12Zm76-40c6.627 0 12 5.373 12 12s-5.373 12-12 12-12-5.373-12-12 5.373-12 12-12Zm-76 0c6.627 0 12 5.373 12 12s-5.373 12-12 12-12-5.373-12-12 5.373-12 12-12Zm76 6a6 6 0 1 0 0 12 6 6 0 0 0 0-12Zm-38 0a6 6 0 1 0 0 12 6 6 0 0 0 0-12Zm-38 0a6 6 0 1 0 0 12 6 6 0 0 0 0-12Z" fill="url(#a)"/></svg></svg><g class="name_and_slogan"><path d="m192.9 220-7.5-46.1h6.5l4.8 30.1 6.3-29.3h4l6.3 29.2 4.9-30h15.7l-7.4 46.1h-17l-4.9-25.5-4.9 25.5h-6.8Zm81-29.5V211q0 4.2-3 6.7t-8.4 2.5h-24.1v-18.6h21.8l-.1-6.9h-21.7v-4.2h35.5ZM260.2 216v-10.2h-14.8V216h14.8Zm56-21.7h-29.3v8.5h29.3v10.4q0 1.4-.4 2.7-.5 1.2-1.3 2.2-.9.9-2.2 1.5-1.3.5-3.1.5H280v-4.2h22.4V207H280v-10q0-1.4.5-2.7.5-1.2 1.5-2.1 1-1 2.3-1.5 1.4-.5 3.2-.5h28.7v4.1Zm23.5-.1v21.7h7.5v4.2H326v-25.9h-6.5V190h6.5v-10.6h13.7V190h7.5v4.2h-7.5Zm17.7 14.8v7h31.5v4.2h-38.4v-29.9h38.4V202q0 3.6-1.8 5.3-1.9 1.7-5.1 1.7h-24.6Zm0-14.4v10.1h17.8v-10.1h-17.8Zm84.4 21.2h24.4v4.2H428v-46.1h38.2v4.3h-24.4v37.6Zm67.8-25.8v20.7q0 2.3-.8 4-.7 1.7-2 2.9-1.3 1.3-3 1.9-1.6.6-3.5.5h-27.9v-30h37.2Zm-30.5 4.3v21.5h15.2v-21.5h-15.2Zm73-20.4v46.3h-29.8q-3.2 0-4.9-1.3-1.7-1.4-1.7-4.5v-24.2h22.9v-16.3h13.5ZM538.6 216v-21.6h-16V216h16Zm26.5-7v7h31.6v4.2h-38.4v-29.9h38.4V202q0 3.6-1.8 5.3-1.9 1.7-5.2 1.7h-24.6Zm0-14.4v10.1H583v-10.1h-17.9Z" fill="#fff" transform="translate(-39.85 14)" class="name"/><path d="M261.7 248q-.3 1.7-.9 3-.6 1.4-1.6 2.5-.9 1.2-2.3 2.3-1.3 1.1-3.1 2.2l-1-1.3q1.7-.9 2.9-1.9 1.2-.9 2.1-2 .8-1 1.4-2.2.6-1.2.9-2.6h-6.4v-1.4h6.6q0-.4.1-.8v-1.2q.1-.3.1-.6v-1.4h-5.6v-1.4h13.7v1.4h-6.5q0 .3-.1.7v2.5q-.1.4-.1.8h7.9v1.4h-8.1Zm8.7 5.3q0 .4-.1.9 0 .5-.1.9-.1.7-.3 1.1-.1.4-.4.6-.3.3-.8.4-.5.1-1.2.1-1.5.1-3 0-.7 0-1.2-.1-.4-.2-.7-.4-.3-.3-.5-.8-.1-.4-.1-1.1v-6l1.5.1v5.5q0 .8.4 1.1.3.3 1.1.3 1.1.1 2.1 0 .5 0 .8-.1.3-.1.5-.2l.2-.4q.1-.3.2-.7v-.8q.1-.5.1-.9l1.5.5Zm19-.7q.8 1.2 1.9 2.2 1 1 2.4 2l-1 1.4q-1.3-1-2.3-2.1-1-1-1.9-2.1-.8 1.1-1.9 2.1-1.1 1-2.5 2.1l-1-1.3q1.5-1 2.7-2.1 1.1-1 1.9-2.1-.8-1.3-1.3-2.6-.4-1.4-.7-2.9l-.4.6-.4.6-.8-1.1q.4-.7.8-1.6.5-1 .9-1.9l.6-2q.3-1 .5-1.9l1.4.2q-.3 1.7-.9 3.2h5.9v1.3h-1.6q-.3 2.6-.8 4.5t-1.5 3.5Zm-4.7-8.3h-8.8v-1.4h4q-.1-.3-.3-.7l-.2-.8-.2-.6q-.1-.4-.2-.6l1.4-.2q.1.2.2.6.2.3.3.7.1.5.3.9.1.4.2.7h3.3v1.4Zm1.9.9q.3 1.8.8 3.3.4 1.5 1.2 2.8.7-1.4 1.1-3 .4-1.6.7-3.7h-3.5q-.1.2-.1.3-.1.2-.2.3Zm-6.8.5q-.7 1.2-1.6 2.5-.8 1.2-1.7 2.3l-1-.9q.8-.9 1.6-2.2.9-1.2 1.5-2.4l1.2.7Zm4.1 4.5q-.2-.5-.6-1.1-.4-.7-.9-1.3-.4-.6-.9-1.1-.4-.6-.7-.9l1.1-.8q.3.3.7.9.4.5.8 1.1.5.6.9 1.2t.6 1l-1 1Zm-1.1 6.4-2.1-2.7q-.9 1.2-2 2.2-1.1 1.1-2.5 2.1l-.9-1.2q1.5-1 2.6-2t1.9-2.2q-.6-.8-1.2-1.5t-1.1-1.2l1-.9q.5.5 1 1.1.5.6 1.1 1.2.7-1.3 1.2-2.8l1.2.5q-.6 1.8-1.5 3.4.7.8 1.3 1.6.6.7 1 1.3l-1 1.1Zm32.4-13.5q-.1 2.4-.1 4.7-.1 1-.1 2v2q-.1 1-.1 1.8 0 .9-.1 1.6 0 .6-.1 1-.2.4-.4.7-.3.3-.7.4-.5.1-1.1.2l-1.7.1-.5-1.5 1.9-.1q.5 0 .8-.3.2-.2.3-1 .1-1.1.1-2.5.1-1.3.1-2.8 0-1.4.1-2.7v-2.2H309q-.2.7-.5 1.3-.3.6-.7 1.3l-1.3-.7q.8-1.5 1.5-3.3.8-1.8 1.2-3.6l1.5.3q-.3.8-.5 1.7l-.6 1.6h5.6ZM304 240q-.2.7-.4 1.5t-.5 1.6h3.1v14.1h-6.8v-14.1h2q.3-.8.6-1.7.2-.8.4-1.7l1.6.3Zm.8 4.5h-4v4.8h4v-4.8Zm5.9 7.9q-.7-1.4-1.4-2.6-.8-1.3-1.4-2.1l1.2-.8q.7.9 1.5 2.1l1.4 2.6-1.3.8Zm-5.9 3.4v-5.1h-4v5.1h4Zm31.7-.6q.2-.5.3-1.1.2-.6.3-1.2l1.3.9-.4 1.4q-.2.6-.5 1.3-.2.4-.4.7-.3.2-.5.4l-.6.2q-.3.1-.6.1-.4 0-.7-.1-.3-.1-.7-.3-.3-.3-.7-.6-.3-.4-.7-1-.8-1.2-1.4-3.2-.6-2.1-.9-5.1l-3.9.4-.2-1.5 3.9-.3q0-.6-.1-1.2v-1.2l-.2-3.8h1.5v.8q0 .4.1 1v1.1q0 .6.1 1v1.1q.1.5.1 1l6.8-.6.1 1.5-6.7.6q.3 2.9.9 4.8.6 1.8 1.2 2.7.5.7.8.9.3.2.7.2.3 0 .6-.1.2-.2.5-.8Zm-9.2-14.8q-.4 1.2-.8 2.2l-1 2V258h-1.4v-10.8l-1.2 1.8-1.2 1.6-1.1-1.1q.8-.9 1.5-2 .8-1.1 1.4-2.3.7-1.3 1.3-2.5.6-1.3 1-2.6l1.5.3Zm8.8 4.5q-.3-.4-.7-.8-.4-.5-.9-.9-.4-.4-.9-.8-.4-.4-.8-.6l.9-1.1q.3.2.8.6.5.4.9.8.5.4.9.9.5.3.8.6l-1 1.3Zm24.5 3.5-.3 6.9q-.1.5-.2.9-.1.5-.3.7-.2.3-.6.5-.4.2-1 .2l-2.1.2-.5-1.5 2.3-.1q.5-.1.6-.4.2-.3.3-.9v-1.4q.1-.5.1-1.1.1-.6.1-1.2v-.9q.1-.4.1-.5h-6.9l.6-6.5 1.4.1-.4 5h3.2l.6-6h-6V241h7.7l-.7 7.4h2Zm-16.5-7h7v1.5h-2.7q-.3 1.1-.6 2.1-.4 1-.9 2h3.7v9.6h-5v-7.1q-.7 1-1.5 2l-.9-1.1q1.2-1.4 2.2-3.4 1-2 1.5-4.1h-2.8v-1.5Zm5.1 7h-2.3v6.8h2.3v-6.8Zm8.9 5.2h-6.9v-1.4h6.9v1.4Zm10 5.1q.4-.6.8-1.3l.6-1.4q.2-.7.4-1.3.1-.7.1-1.2h1.7q0 .6-.2 1.3-.2.8-.5 1.4-.3.8-.7 1.4-.4.6-.8 1.1h-1.4Zm28.3-15.1-.6 1q-.4.6-.7 1.1h9.3v9.8q0 .6-.2 1-.1.4-.4.6-.2.3-.7.4-.5.1-1.1.2l-1.4.2-.5-1.5 1.3-.1q.5 0 .8-.1.3 0 .4-.1.2-.2.2-.4.1-.2.1-.6V254h-8.7v3.9h-1.5v-9.5q-.7.7-1.5 1.4-.7.7-1.6 1.3l-1-1.2q1.9-1.4 3.4-2.9 1.5-1.6 2.6-3.4h-5.1v-1.4h5.9q.6-1.1 1-2.4l1.6.4-.4 1q-.2.5-.5 1h9.7v1.4h-10.4Zm6.5 3.4h-8.7v2.2h8.7V247Zm0 5.7v-2.2h-8.7v2.2h8.7Zm25-11.6v14.4q0 .6-.2 1-.1.4-.4.7-.3.2-.7.3-.5.2-1.2.2l-1.2.1-.5-1.5 1.2-.1q.5 0 .8-.1.3 0 .4-.2.2-.1.2-.3v-3.4h-4.8v5.4H420v-5.4h-4.8q-.1.9-.3 1.6-.1.8-.4 1.5l-.6 1.4q-.4.7-.9 1.5l-1.4-.7q.6-1 1.1-1.8.4-.8.7-1.7.2-.9.3-2 .1-1.2.1-2.8v-8.1h14.1Zm-12.6 1.4v3.5h4.7v-3.5h-4.7Zm11 0h-4.8v3.5h4.8v-3.5Zm-6.3 8.2v-3.2h-4.7v3.2h4.7Zm6.3 0v-3.2h-4.8v3.2h4.8Zm24.9-7.6q0 2.4-.1 4.7v2q0 1-.1 2v1.8q-.1.9-.1 1.6 0 .6-.2 1-.1.4-.4.7-.2.3-.7.4-.4.1-1 .2l-1.8.1-.4-1.5 1.9-.1q.5 0 .7-.3.3-.2.4-1 0-1.1.1-2.5 0-1.3.1-2.8v-2.7q.1-1.3.1-2.2h-4.6q-.3.7-.6 1.3-.3.6-.6 1.3l-1.4-.7q.9-1.5 1.6-3.3.7-1.8 1.2-3.6l1.4.3q-.2.8-.5 1.7-.2.8-.5 1.6h5.5Zm-11.1-3.1q-.2.7-.4 1.5t-.5 1.6h3.1v14.1h-6.8v-14.1h2q.3-.8.5-1.7.3-.8.5-1.7l1.6.3Zm.8 4.5h-4v4.8h4v-4.8Zm5.9 7.9q-.7-1.4-1.5-2.6-.7-1.3-1.3-2.1l1.2-.8q.7.9 1.4 2.1.8 1.3 1.5 2.6l-1.3.8Zm-5.9 3.4v-5.1h-4v5.1h4Zm33.2 2.4q-1.7-.7-3-1.5-1.4-.9-2.5-1.9-1.1.9-2.6 1.7-1.4.9-3.2 1.6l-1-1.4q1.8-.6 3.2-1.3 1.4-.8 2.5-1.7-.8-1-1.5-2.2-.7-1.2-1.2-2.5l1.2-.6q1 2.6 2.6 4.4 1.1-1.1 1.8-2.2t1.1-2.3H464v-1.4h3.9v-2.8h-4.2v-1.4h4.2v-2.8l1.5.1v2.7h4.7v1.4h-4.7v2.8h3.8v1.4q-.6 1.3-1.4 2.7-.8 1.4-2.2 2.8 2.2 1.9 5.4 3l-.9 1.4Zm-10.8-8.9q-.4.2-.9.4l-1.2.4v5.6q0 .6-.1.9-.1.4-.3.6-.2.2-.7.3-.4.1-1.1.2l-1 .1-.4-1.5 1.2-.1q.3 0 .5-.1.2 0 .3-.2.1-.1.2-.3v-5l-1.6.6q-.7.2-1.3.4l-.4-1.4q.6-.2 1.5-.4l1.8-.6V245h-2.3v-1.4h2.3v-3.5h1.4v3.5h1.9v1.4h-1.9v3.7l1-.4q.5-.1.8-.3l.3 1.3Zm26.3-3.9q1.4 2.8 3.4 5 2.1 2.2 4.9 4.1l-1 1.4q-1.5-1-2.7-2.1-1.1-1-2-2.1-.9-1.1-1.6-2.1-.7-1.1-1.2-2.1v10.4h-1.6v-10.3q-1 2.1-2.8 4.2-1.8 2-4.5 4.1l-1.2-1.3q1.4-.9 2.6-2 1.2-1 2.2-2.2 1.1-1.2 1.9-2.4.9-1.3 1.5-2.6h-6.9v-1.3h7.2V240l1.6.1v4h7.3v1.3h-7.1Zm4.3-1.5q-.7-.9-1.4-1.6-.6-.7-1.3-1.3l.9-.9q.3.3.7.6l.7.7q.4.3.7.7.4.3.7.7l-1 1.1Z" fill="#fff" transform="translate(-39.85 14)" class="slogan"/></g></g></svg>