<svg height="100%" version="1.1" width="100%" xmlns="http://www.w3.org/2000/svg" preserveAspectRatio="xMidYMid meet" viewBox="0 0 600 442" xmlns:xlink="http://www.w3.org/1999/xlink"><desc>Created with Snap</desc><defs/><g id="root" contentwidth="513.7" contentheight="108">
          <rect class="background" height="2000%" width="2000%" y="-1000%" x="-1000%" style="" fill="#1b1b1b"/>
          <rect class="watermarklayer" height="100%" width="100%" y="0" x="0" style="" fill="none"/>
          <g class="content" id="content" transform="matrix(1,0,0,1,-39.85,14)">
            <g class="icon">
            <svg height="108" version="1.1" width="158" xmlns="http://www.w3.org/2000/svg" x="83" y="153" preserveAspectRatio="none" transform="matrix(1,0,0,1,0,0)"><desc>Created with Snap</desc><defs/><svg xmlns="http://www.w3.org/2000/svg" viewBox="129 167 158 108"><defs><linearGradient x1="-24%" y1="19%" x2="138%" y2="98%" id="prefix-XRC-linearGradient-1"><stop stop-color="#5433FF" offset="0%"/><stop stop-color="#20BDFF" offset="50%"/><stop stop-color="#A5FECB" offset="100%"/></linearGradient></defs><path d="M179 201c6.627 0 12 5.373 12 12a12 12 0 0 1-.506 3.459l40.741 39.806h33.832a11.988 11.988 0 0 1 9.628-5.261L275 251c6.627 0 12 5.373 12 12s-5.373 12-12 12-12-5.373-12-12c0-.247.007-.491.022-.734h-34.23l-41.523-40.57A11.96 11.96 0 0 1 179 225c-2.965 0-5.68-1.076-7.774-2.858l-19.236 19.031c.65 1.477 1.01 3.11 1.01 4.827 0 6.627-5.373 12-12 12s-12-5.373-12-12 5.373-12 12-12c2.723 0 5.234.907 7.248 2.435l19.49-19.282A11.976 11.976 0 0 1 167 213c0-6.627 5.373-12 12-12Zm96 56a6 6 0 1 0 0 12 6 6 0 0 0 0-12Zm-96-23c6.627 0 12 5.373 12 12s-5.373 12-12 12-12-5.373-12-12 5.373-12 12-12Zm0 6a6 6 0 1 0 0 12 6 6 0 0 0 0-12Zm-38 0a6 6 0 1 0 0 12 6 6 0 0 0 0-12Zm38-73c6.627 0 12 5.373 12 12s-5.373 12-12 12c-2.711 0-5.212-.9-7.222-2.415l-19.791 19.581A11.959 11.959 0 0 1 153 213c0 6.627-5.373 12-12 12s-12-5.373-12-12 5.373-12 12-12c2.72 0 5.229.905 7.242 2.43l19.783-19.57A11.958 11.958 0 0 1 167 179c0-6.627 5.373-12 12-12Zm0 40a6 6 0 1 0 0 12 6 6 0 0 0 0-12Zm-38 0a6 6 0 1 0 0 12 6 6 0 0 0 0-12Zm76-40c6.627 0 12 5.373 12 12s-5.373 12-12 12-12-5.373-12-12 5.373-12 12-12Zm-76 0c6.627 0 12 5.373 12 12s-5.373 12-12 12-12-5.373-12-12 5.373-12 12-12Zm76 6a6 6 0 1 0 0 12 6 6 0 0 0 0-12Zm-38 0a6 6 0 1 0 0 12 6 6 0 0 0 0-12Zm-38 0a6 6 0 1 0 0 12 6 6 0 0 0 0-12Z" id="prefix-XRC-形状结合" fill="url(#prefix-XRC-linearGradient-1)"/></svg></svg></g>
            <g id="icon_name_and_slogan_gap">
            </g>
            <g class="name_and_slogan" id="name_and_slogan_id">
              <g class="name"><g id="nameDefaultGroup"><path d="M192.9 220 L185.4 173.9 L191.9 173.9 L196.7 204 L203 174.7 L207 174.7 L213.3 203.9 L218.2 173.9 L233.9 173.9 L226.5 220 L209.5 220 L204.6 194.5 L199.7 220 L192.9 220 Z M273.9 190.5 L273.9 211 Q273.9 215.2 270.9 217.7 Q267.9 220.2 262.5 220.2 L238.4 220.2 L238.4 201.6 L260.2 201.6 L260.1 194.7 L238.4 194.7 L238.4 190.5 L273.9 190.5 Z M260.2 216 L260.2 205.8 L245.4 205.8 L245.4 216 L260.2 216 Z M316.2 194.3 L286.9 194.3 L286.9 202.8 L316.2 202.8 L316.2 213.2 Q316.2 214.6 315.8 215.9 Q315.3 217.1 314.5 218.1 Q313.6 219 312.3 219.6 Q311 220.1 309.2 220.1 L280 220.1 L280 215.9 L302.4 215.9 L302.4 207 L280 207 L280 197 Q280 195.6 280.5 194.3 Q281 193.1 282 192.2 Q283 191.2 284.3 190.7 Q285.7 190.2 287.5 190.2 L316.2 190.2 L316.2 194.3 Z M339.7 194.2 L339.7 215.9 L347.2 215.9 L347.2 220.1 L326 220.1 L326 194.2 L319.5 194.2 L319.5 190 L326 190 L326 179.4 L339.7 179.4 L339.7 190 L347.2 190 L347.2 194.2 L339.7 194.2 Z M357.4 209 L357.4 216 L388.9 216 L388.9 220.2 L350.5 220.2 L350.5 190.3 L388.9 190.3 L388.9 202 Q388.9 205.6 387.1 207.3 Q385.2 209 382 209 L357.4 209 Z M357.4 194.6 L357.4 204.7 L375.2 204.7 L375.2 194.6 L357.4 194.6 Z M441.8 215.8 L466.2 215.8 L466.2 220 L428 220 L428 173.9 L466.2 173.9 L466.2 178.2 L441.8 178.2 L441.8 215.8 Z M509.6 190 L509.6 210.7 Q509.6 213 508.8 214.7 Q508.1 216.4 506.8 217.6 Q505.5 218.9 503.8 219.5 Q502.2 220.1 500.3 220 L472.4 220 L472.4 190 L509.6 190 Z M479.1 194.3 L479.1 215.8 L494.3 215.8 L494.3 194.3 L479.1 194.3 Z M552.1 173.9 L552.1 220.2 L522.3 220.2 Q519.1 220.2 517.4 218.9 Q515.7 217.5 515.7 214.4 L515.7 190.2 L538.6 190.2 L538.6 173.9 L552.1 173.9 Z M538.6 216 L538.6 194.4 L522.6 194.4 L522.6 216 L538.6 216 Z M565.1 209 L565.1 216 L596.7 216 L596.7 220.2 L558.3 220.2 L558.3 190.3 L596.7 190.3 L596.7 202 Q596.7 205.6 594.9 207.3 Q593 209 589.7 209 L565.1 209 Z M565.1 194.6 L565.1 204.7 L583 204.7 L583 194.6 L565.1 194.6 Z" style="" fill="#ffffff" transform="matrix(1,0,0,1,0,0)"/></g></g>
              <g class="slogan"><g id="sloganDefaultGroup"><path d="M261.7 248 Q261.4 249.7 260.8 251 Q260.2 252.4 259.2 253.5 Q258.3 254.7 256.9 255.8 Q255.6 256.9 253.8 258 L252.8 256.7 Q254.5 255.8 255.7 254.8 Q256.9 253.9 257.8 252.8 Q258.6 251.8 259.2 250.6 Q259.8 249.4 260.1 248 L253.7 248 L253.7 246.6 L260.3 246.6 Q260.3 246.2 260.4 245.8 Q260.4 245.4 260.4 244.9 Q260.4 244.8 260.4 244.6 Q260.5 244.3 260.5 244 Q260.5 243.6 260.5 243.3 Q260.5 242.9 260.5 242.6 L254.9 242.6 L254.9 241.2 L268.6 241.2 L268.6 242.6 L262.1 242.6 Q262.1 242.9 262 243.3 Q262 243.7 262 244 Q262 244.4 262 244.7 Q262 244.9 262 245.1 Q262 245.5 262 245.8 Q261.9 246.2 261.9 246.6 L269.8 246.6 L269.8 248 L261.7 248 Z M270.4 253.3 Q270.4 253.7 270.3 254.2 Q270.3 254.7 270.2 255.1 Q270.1 255.8 269.9 256.2 Q269.8 256.6 269.5 256.8 Q269.2 257.1 268.7 257.2 Q268.2 257.3 267.5 257.3 Q266 257.4 264.5 257.3 Q263.8 257.3 263.3 257.2 Q262.9 257 262.6 256.8 Q262.3 256.5 262.1 256 Q262 255.6 262 254.9 L262 248.9 L263.5 249 L263.5 254.5 Q263.5 255.3 263.9 255.6 Q264.2 255.9 265 255.9 Q266.1 256 267.1 255.9 Q267.6 255.9 267.9 255.8 Q268.2 255.7 268.4 255.6 Q268.5 255.4 268.6 255.2 Q268.7 254.9 268.8 254.5 Q268.8 254.1 268.8 253.7 Q268.9 253.2 268.9 252.8 L270.4 253.3 Z M289.4 252.6 Q290.2 253.8 291.3 254.8 Q292.3 255.8 293.7 256.8 L292.7 258.2 Q291.4 257.2 290.4 256.1 Q289.4 255.1 288.5 254 Q287.7 255.1 286.6 256.1 Q285.5 257.1 284.1 258.2 L283.1 256.9 Q284.6 255.9 285.8 254.8 Q286.9 253.8 287.7 252.7 Q286.9 251.4 286.4 250.1 Q286 248.7 285.7 247.2 Q285.5 247.5 285.3 247.8 Q285.1 248.1 284.9 248.4 L284.1 247.3 Q284.5 246.6 284.9 245.7 Q285.4 244.7 285.8 243.8 Q286.1 242.8 286.4 241.8 Q286.7 240.8 286.9 239.9 L288.3 240.1 Q288 241.8 287.4 243.3 L293.3 243.3 L293.3 244.6 L291.7 244.6 Q291.4 247.2 290.9 249.1 Q290.4 251 289.4 252.6 Z M284.7 244.3 L275.9 244.3 L275.9 242.9 L279.9 242.9 Q279.8 242.6 279.6 242.2 Q279.5 241.8 279.4 241.4 Q279.3 241.1 279.2 240.8 Q279.1 240.4 279 240.2 L280.4 240 Q280.5 240.2 280.6 240.6 Q280.8 240.9 280.9 241.3 Q281 241.8 281.2 242.2 Q281.3 242.6 281.4 242.9 L284.7 242.9 L284.7 244.3 Z M286.6 245.2 Q286.9 247 287.4 248.5 Q287.8 250 288.6 251.3 Q289.3 249.9 289.7 248.3 Q290.1 246.7 290.4 244.6 L286.9 244.6 Q286.8 244.8 286.8 244.9 Q286.7 245.1 286.6 245.2 Z M279.8 245.7 Q279.1 246.9 278.2 248.2 Q277.4 249.4 276.5 250.5 L275.5 249.6 Q276.3 248.7 277.1 247.4 Q278 246.2 278.6 245 L279.8 245.7 Z M283.9 250.2 Q283.7 249.7 283.3 249.1 Q282.9 248.4 282.4 247.8 Q282 247.2 281.5 246.7 Q281.1 246.1 280.8 245.8 L281.9 245 Q282.2 245.3 282.6 245.9 Q283 246.4 283.4 247 Q283.9 247.6 284.3 248.2 Q284.7 248.8 284.9 249.2 L283.9 250.2 Z M282.8 256.6 L280.7 253.9 Q279.8 255.1 278.7 256.1 Q277.6 257.2 276.2 258.2 L275.3 257 Q276.8 256 277.9 255 Q279 254 279.8 252.8 Q279.2 252 278.6 251.3 Q278 250.6 277.5 250.1 L278.5 249.2 Q279 249.7 279.5 250.3 Q280 250.9 280.6 251.5 Q281.3 250.2 281.8 248.7 L283 249.2 Q282.4 251 281.5 252.6 Q282.2 253.4 282.8 254.2 Q283.4 254.9 283.8 255.5 L282.8 256.6 Z M315.2 243.1 Q315.1 245.5 315.1 247.8 Q315 248.8 315 249.8 Q315 250.8 315 251.8 Q314.9 252.8 314.9 253.6 Q314.9 254.5 314.8 255.2 Q314.8 255.8 314.7 256.2 Q314.5 256.6 314.3 256.9 Q314 257.2 313.6 257.3 Q313.1 257.4 312.5 257.5 L310.8 257.6 L310.3 256.1 L312.2 256 Q312.7 256 313 255.7 Q313.2 255.5 313.3 254.7 Q313.4 253.6 313.4 252.2 Q313.5 250.9 313.5 249.4 Q313.5 248 313.6 246.7 Q313.6 245.4 313.6 244.5 L309 244.5 Q308.8 245.2 308.5 245.8 Q308.2 246.4 307.8 247.1 L306.5 246.4 Q307.3 244.9 308 243.1 Q308.8 241.3 309.2 239.5 L310.7 239.8 Q310.4 240.6 310.2 241.5 Q309.9 242.3 309.6 243.1 L315.2 243.1 Z M304 240 Q303.8 240.7 303.6 241.5 Q303.4 242.3 303.1 243.1 L306.2 243.1 L306.2 257.2 L299.4 257.2 L299.4 243.1 L301.4 243.1 Q301.7 242.3 302 241.4 Q302.2 240.6 302.4 239.7 L304 240 Z M304.8 244.5 L300.8 244.5 L300.8 249.3 L304.8 249.3 L304.8 244.5 Z M310.7 252.4 Q310 251 309.3 249.8 Q308.5 248.5 307.9 247.7 L309.1 246.9 Q309.8 247.8 310.6 249 Q311.3 250.3 312 251.6 L310.7 252.4 Z M304.8 255.8 L304.8 250.7 L300.8 250.7 L300.8 255.8 L304.8 255.8 Z M336.5 255.2 Q336.7 254.7 336.8 254.1 Q337 253.5 337.1 252.9 L338.4 253.8 Q338.2 254.5 338 255.2 Q337.8 255.8 337.5 256.5 Q337.3 256.9 337.1 257.2 Q336.8 257.4 336.6 257.6 Q336.3 257.7 336 257.8 Q335.7 257.9 335.4 257.9 Q335 257.9 334.7 257.8 Q334.4 257.7 334 257.5 Q333.7 257.2 333.3 256.9 Q333 256.5 332.6 255.9 Q331.8 254.7 331.2 252.7 Q330.6 250.6 330.3 247.6 L326.4 248 L326.2 246.5 L330.1 246.2 Q330.1 245.6 330 245 Q330 244.4 330 243.8 L329.8 240 L331.3 240 Q331.3 240.3 331.3 240.8 Q331.3 241.2 331.4 241.8 Q331.4 242.4 331.4 242.9 Q331.4 243.5 331.5 243.9 Q331.5 244.5 331.5 245 Q331.6 245.5 331.6 246 L338.4 245.4 L338.5 246.9 L331.8 247.5 Q332.1 250.4 332.7 252.3 Q333.3 254.1 333.9 255 Q334.4 255.7 334.7 255.9 Q335 256.1 335.4 256.1 Q335.7 256.1 336 256 Q336.2 255.8 336.5 255.2 Z M327.3 240.4 Q326.9 241.6 326.5 242.6 Q326 243.6 325.5 244.6 L325.5 258 L324.1 258 L324.1 247.2 Q323.5 248.1 322.9 249 Q322.3 249.8 321.7 250.6 L320.6 249.5 Q321.4 248.6 322.1 247.5 Q322.9 246.4 323.5 245.2 Q324.2 243.9 324.8 242.7 Q325.4 241.4 325.8 240.1 L327.3 240.4 Z M336.1 244.9 Q335.8 244.5 335.4 244.1 Q335 243.6 334.5 243.2 Q334.1 242.8 333.6 242.4 Q333.2 242 332.8 241.8 L333.7 240.7 Q334 240.9 334.5 241.3 Q335 241.7 335.4 242.1 Q335.9 242.5 336.3 243 Q336.8 243.3 337.1 243.6 L336.1 244.9 Z M360.6 248.4 L360.3 255.3 Q360.2 255.8 360.1 256.2 Q360 256.7 359.8 256.9 Q359.6 257.2 359.2 257.4 Q358.8 257.6 358.2 257.6 L356.1 257.8 L355.6 256.3 L357.9 256.2 Q358.4 256.1 358.5 255.8 Q358.7 255.5 358.8 254.9 Q358.8 254.8 358.8 254.4 Q358.8 254 358.8 253.5 Q358.9 253 358.9 252.4 Q359 251.8 359 251.2 Q359 250.7 359 250.3 Q359.1 249.9 359.1 249.8 L352.2 249.8 L352.8 243.3 L354.2 243.4 L353.8 248.4 L357 248.4 L357.6 242.4 L351.6 242.4 L351.6 241 L359.3 241 L358.6 248.4 L360.6 248.4 Z M344.1 241.4 L351.1 241.4 L351.1 242.9 L348.4 242.9 Q348.1 244 347.8 245 Q347.4 246 346.9 247 L350.6 247 L350.6 256.6 L345.6 256.6 L345.6 249.5 Q344.9 250.5 344.1 251.5 L343.2 250.4 Q344.4 249 345.4 247 Q346.4 245 346.9 242.9 L344.1 242.9 L344.1 241.4 Z M349.2 248.4 L346.9 248.4 L346.9 255.2 L349.2 255.2 L349.2 248.4 Z M358.1 253.6 L351.2 253.6 L351.2 252.2 L358.1 252.2 L358.1 253.6 Z M368.1 258.7 Q368.5 258.1 368.9 257.4 Q369.2 256.7 369.5 256 Q369.7 255.3 369.9 254.7 Q370 254 370 253.5 L371.7 253.5 Q371.7 254.1 371.5 254.8 Q371.3 255.6 371 256.2 Q370.7 257 370.3 257.6 Q369.9 258.2 369.5 258.7 L368.1 258.7 Z M396.4 243.6 Q396.1 244.1 395.8 244.6 Q395.4 245.2 395.1 245.7 L404.4 245.7 L404.4 255.5 Q404.4 256.1 404.2 256.5 Q404.1 256.9 403.8 257.1 Q403.6 257.4 403.1 257.5 Q402.6 257.6 402 257.7 L400.6 257.9 L400.1 256.4 L401.4 256.3 Q401.9 256.3 402.2 256.2 Q402.5 256.2 402.6 256.1 Q402.8 255.9 402.8 255.7 Q402.9 255.5 402.9 255.1 L402.9 254 L394.2 254 L394.2 257.9 L392.7 257.9 L392.7 248.4 Q392 249.1 391.2 249.8 Q390.5 250.5 389.6 251.1 L388.6 249.9 Q390.5 248.5 392 247 Q393.5 245.4 394.6 243.6 L389.5 243.6 L389.5 242.2 L395.4 242.2 Q396 241.1 396.4 239.8 L398 240.2 Q397.8 240.7 397.6 241.2 Q397.4 241.7 397.1 242.2 L406.8 242.2 L406.8 243.6 L396.4 243.6 Z M402.9 247 L394.2 247 L394.2 249.2 L402.9 249.2 L402.9 247 Z M402.9 252.7 L402.9 250.5 L394.2 250.5 L394.2 252.7 L402.9 252.7 Z M427.9 241.1 L427.9 255.5 Q427.9 256.1 427.7 256.5 Q427.6 256.9 427.3 257.2 Q427 257.4 426.6 257.5 Q426.1 257.7 425.4 257.7 L424.2 257.8 L423.7 256.3 L424.9 256.2 Q425.4 256.2 425.7 256.1 Q426 256.1 426.1 255.9 Q426.3 255.8 426.3 255.6 Q426.3 255.3 426.3 255 L426.3 252.2 L421.5 252.2 L421.5 257.6 L420 257.6 L420 252.2 L415.2 252.2 Q415.1 253.1 414.9 253.8 Q414.8 254.6 414.5 255.3 Q414.2 256 413.9 256.7 Q413.5 257.4 413 258.2 L411.6 257.5 Q412.2 256.5 412.7 255.7 Q413.1 254.9 413.4 254 Q413.6 253.1 413.7 252 Q413.8 250.8 413.8 249.2 L413.8 241.1 L427.9 241.1 Z M415.3 242.5 L415.3 246 L420 246 L420 242.5 L415.3 242.5 Z M426.3 242.5 L421.5 242.5 L421.5 246 L426.3 246 L426.3 242.5 Z M420 250.7 L420 247.5 L415.3 247.5 L415.3 249.7 Q415.3 250 415.3 250.2 Q415.3 250.5 415.3 250.7 L420 250.7 Z M426.3 250.7 L426.3 247.5 L421.5 247.5 L421.5 250.7 L426.3 250.7 Z M451.2 243.1 Q451.2 245.5 451.1 247.8 Q451.1 248.8 451.1 249.8 Q451.1 250.8 451 251.8 Q451 252.8 451 253.6 Q450.9 254.5 450.9 255.2 Q450.9 255.8 450.7 256.2 Q450.6 256.6 450.3 256.9 Q450.1 257.2 449.6 257.3 Q449.2 257.4 448.6 257.5 L446.8 257.6 L446.4 256.1 L448.3 256 Q448.8 256 449 255.7 Q449.3 255.5 449.4 254.7 Q449.4 253.6 449.5 252.2 Q449.5 250.9 449.6 249.4 Q449.6 248 449.6 246.7 Q449.7 245.4 449.7 244.5 L445.1 244.5 Q444.8 245.2 444.5 245.8 Q444.2 246.4 443.9 247.1 L442.5 246.4 Q443.4 244.9 444.1 243.1 Q444.8 241.3 445.3 239.5 L446.7 239.8 Q446.5 240.6 446.2 241.5 Q446 242.3 445.7 243.1 L451.2 243.1 Z M440.1 240 Q439.9 240.7 439.7 241.5 Q439.5 242.3 439.2 243.1 L442.3 243.1 L442.3 257.2 L435.5 257.2 L435.5 243.1 L437.5 243.1 Q437.8 242.3 438 241.4 Q438.3 240.6 438.5 239.7 L440.1 240 Z M440.9 244.5 L436.9 244.5 L436.9 249.3 L440.9 249.3 L440.9 244.5 Z M446.8 252.4 Q446.1 251 445.3 249.8 Q444.6 248.5 444 247.7 L445.2 246.9 Q445.9 247.8 446.6 249 Q447.4 250.3 448.1 251.6 L446.8 252.4 Z M440.9 255.8 L440.9 250.7 L436.9 250.7 L436.9 255.8 L440.9 255.8 Z M474.1 258.2 Q472.4 257.5 471.1 256.7 Q469.7 255.8 468.6 254.8 Q467.5 255.7 466 256.5 Q464.6 257.4 462.8 258.1 L461.8 256.7 Q463.6 256.1 465 255.4 Q466.4 254.6 467.5 253.7 Q466.7 252.7 466 251.5 Q465.3 250.3 464.8 249 L466 248.4 Q467 251 468.6 252.8 Q469.7 251.7 470.4 250.6 Q471.1 249.5 471.5 248.3 L464 248.3 L464 246.9 L467.9 246.9 L467.9 244.1 L463.7 244.1 L463.7 242.7 L467.9 242.7 L467.9 239.9 L469.4 240 L469.4 242.7 L474.1 242.7 L474.1 244.1 L469.4 244.1 L469.4 246.9 L473.2 246.9 L473.2 248.3 Q472.6 249.6 471.8 251 Q471 252.4 469.6 253.8 Q471.8 255.7 475 256.8 L474.1 258.2 Z M463.3 249.3 Q462.9 249.5 462.4 249.7 Q461.8 249.9 461.2 250.1 L461.2 255.7 Q461.2 256.3 461.1 256.6 Q461 257 460.8 257.2 Q460.6 257.4 460.1 257.5 Q459.7 257.6 459 257.7 L458 257.8 L457.6 256.3 L458.8 256.2 Q459.1 256.2 459.3 256.1 Q459.5 256.1 459.6 255.9 Q459.7 255.8 459.8 255.6 Q459.8 255.4 459.8 255 L459.8 250.6 Q459 250.9 458.2 251.2 Q457.5 251.4 456.9 251.6 L456.5 250.2 Q457.1 250 458 249.8 Q458.9 249.5 459.8 249.2 L459.8 245 L457.5 245 L457.5 243.6 L459.8 243.6 L459.8 240.1 L461.2 240.1 L461.2 243.6 L463.1 243.6 L463.1 245 L461.2 245 L461.2 248.7 Q461.7 248.5 462.2 248.3 Q462.7 248.2 463 248 L463.3 249.3 Z M489.6 245.4 Q491 248.2 493 250.4 Q495.1 252.6 497.9 254.5 L496.9 255.9 Q495.4 254.9 494.2 253.8 Q493.1 252.8 492.2 251.7 Q491.3 250.6 490.6 249.6 Q489.9 248.5 489.4 247.5 L489.4 257.9 L487.8 257.9 L487.8 247.6 Q486.8 249.7 485 251.8 Q483.2 253.8 480.5 255.9 L479.3 254.6 Q480.7 253.7 481.9 252.6 Q483.1 251.6 484.1 250.4 Q485.2 249.2 486 248 Q486.9 246.7 487.5 245.4 L480.6 245.4 L480.6 244.1 L487.8 244.1 L487.8 240 L489.4 240.1 L489.4 244.1 L496.7 244.1 L496.7 245.4 L489.6 245.4 Z M493.9 243.9 Q493.2 243 492.5 242.3 Q491.9 241.6 491.2 241 L492.1 240.1 Q492.4 240.4 492.8 240.7 Q493.1 241 493.5 241.4 Q493.9 241.7 494.2 242.1 Q494.6 242.4 494.9 242.8 L493.9 243.9 Z" style="" fill="#ffffff" transform="matrix(1,0,0,1,0,0)"/></g></g>
            </g>
            <g class="border">
            </g>
          </g>
          <defs id="defs">
            <mask xmlns="http://www.w3.org/2000/svg" id="mask">
                <rect id="showAll" fill="white" x="83" y="153" width="158" height="108"/>
                <rect id="hideNameBg" fill="black" x="0" y="0" width="0" height="0" stroke-width="2" stroke="black"/>
                <rect id="hideSloganBg" fill="black" x="0" y="0" width="0" height="0" stroke-width="2" stroke="black"/>
            </mask>
          
          </defs>
        </g>
        </svg>